<?xml version="1.0" encoding="utf-8"?>
<!-- Generator: Adobe Illustrator 19.2.0, SVG Export Plug-In . SVG Version: 6.00 Build 0)  -->
<svg version="1.1" id="Layer_1" xmlns="http://www.w3.org/2000/svg" xmlns:xlink="http://www.w3.org/1999/xlink" x="0px" y="0px"
	 viewBox="0 0 20 10" style="enable-background:new 0 0 20 10;" xml:space="preserve">
<style type="text/css">
	.st0{fill:#BF2026;}
	.st1{fill:#010101;}
	.st2{fill:none;stroke:#010101;stroke-width:0.5;stroke-miterlimit:10;}
	.st3{fill:#CD6D28;}
	.st4{fill:none;stroke:#BF2026;stroke-width:0.5;stroke-miterlimit:10;}
	.st5{fill:#BF2026;stroke:#010101;stroke-width:0.5;stroke-miterlimit:10;}
	.st6{fill:url(#XMLID_2_);}
	.st7{fill:url(#XMLID_3_);}
	.st8{fill:url(#XMLID_4_);}
	.st9{fill:url(#XMLID_5_);stroke:#010101;stroke-width:0.5;stroke-miterlimit:10;}
	.st10{fill:#333333;}
	.st11{fill:#D9D9D8;}
	.st12{fill:url(#XMLID_6_);}
	.st13{fill:url(#XMLID_7_);}
	.st14{fill:url(#XMLID_8_);}
	.st15{fill:url(#XMLID_9_);}
	.st16{fill:url(#XMLID_10_);}
	.st17{fill:url(#XMLID_11_);}
	.st18{fill:url(#XMLID_12_);}
	.st19{fill:url(#XMLID_13_);}
	.st20{fill:url(#XMLID_14_);}
	.st21{fill:url(#XMLID_15_);}
	.st22{fill:url(#XMLID_16_);}
	.st23{fill:url(#XMLID_17_);}
	.st24{fill:url(#XMLID_18_);}
	.st25{fill:url(#XMLID_19_);}
	.st26{fill:url(#XMLID_20_);}
	.st27{fill:url(#XMLID_21_);}
	.st28{fill:url(#XMLID_22_);stroke:#010101;stroke-width:0.5;stroke-miterlimit:10;}
</style>
<g id="XMLID_423_">
	<path id="XMLID_532_" class="st0" d="M3.9,8.6c0.4,0,1.3,0.1,1.6,0.1c0.3,0,1.6,0,3.1,0c0,0,0,0,0,0c-0.1,0-0.4,0,0,0
		C8.7,8.9,8.9,9,8.8,9.2c-1.4,0-3.5,0-4.5,0C4,9,3.9,8.8,3.9,8.6z"/>
	<path id="XMLID_531_" class="st0" d="M14.4,9.1C14.3,9.1,14.3,9.1,14.4,9.1c-1.4,0-4.2,0.1-5.5,0.1C8.9,9,8.7,8.9,8.7,8.7
		c2,0,5.2,0,5.5,0c0,0,0.1,0,0.2,0C14.4,8.8,14.4,9,14.4,9.1z"/>
	<path id="XMLID_530_" class="st0" d="M3.9,1.4c0.4,0,1.3-0.1,1.6-0.1c0.3,0,1.6,0,3.1,0c0,0,0,0,0,0c-0.1,0-0.4,0,0,0
		C8.7,1.1,8.9,1,8.8,0.8c-1.4,0-3.5,0-4.5,0C4,1,3.9,1.2,3.9,1.4z"/>
	<path id="XMLID_529_" class="st0" d="M14.4,0.9C14.3,0.9,14.3,0.9,14.4,0.9c-1.4,0-4.2-0.1-5.5-0.1C8.9,1,8.7,1.1,8.7,1.3
		c2,0,5.2,0,5.5,0c0,0,0.1,0,0.2,0C14.4,1.2,14.4,1,14.4,0.9z"/>
	<path id="XMLID_528_" class="st1" d="M14.9,8.6c0.2,0,0.4-0.1,0.6-0.3C15.7,8,15.8,7.5,15.9,7c0.1-0.7,0.1-1.9,0.1-2c0,0,0,0,0,0
		c0,0,0,0,0,0c0-0.1,0-1.2-0.1-1.9c-0.1-0.6-0.2-1.1-0.4-1.3c-0.2-0.3-0.4-0.3-0.6-0.3c-0.3,0-3.1,0.7-3.1,0.7S12,2.6,12,3.4
		C12.1,4,12.1,4.9,12.1,5c0,0,0,0,0,0c0,0,0,0,0,0c0,0.1,0,1-0.1,1.7C12,7.4,11.8,8,11.8,8S14.6,8.6,14.9,8.6z"/>
	<path id="XMLID_527_" class="st0" d="M11.8,8.2c0.1,0,0.3-0.1,0.3-0.1C12,8,11.8,8,11.8,8S12,7.4,12,6.6c0.1-0.6,0.1-1.5,0.1-1.7
		c0,0,0,0.1,0,0c0-0.1,0,0,0,0c0-0.1,0-1-0.1-1.6C12,2.6,11.8,2,11.8,2S12,2,12.2,2c-0.1,0-0.2-0.1-0.3-0.1c-0.1,0-0.3,0.1-0.4,0.1
		C9.3,2,7.3,2.1,5.2,2c0,0-0.1,0-0.1-0.1C4.6,2,4.1,2,3.7,2.1c-0.2,0-0.4,0-0.7,0.1l0,2.9l0,2.9c0.2,0,0.5,0,0.7,0.1
		C4.1,8,4.6,8,5.1,8c0,0,0.1,0,0.1-0.1C7.3,7.9,9.3,8,11.4,8.1C11.6,8.1,11.7,8.1,11.8,8.2z"/>
	<path id="XMLID_524_" class="st0" d="M16.9,9.1C17.6,9,17.6,9,18,8.9c0.4-0.1,0.9-0.5,1.4-1.2C20,7,20,5.3,20,5c0-0.3,0-2-0.6-2.7
		c-0.5-0.7-1-1-1.4-1.2C17.6,1,17.6,1,16.9,0.9c-0.4,0-1.9,0-2.6,0c0.1,0.1,0,0.3,0,0.4c0.1,0,0.3,0,0.3,0c0.3,0,0.6,0.1,0.8,0.4
		C15.7,2,15.8,2.5,15.9,3C16.1,3.6,16.1,5,16.1,5s0,1.4-0.1,2c-0.1,0.6-0.2,1.1-0.4,1.3c-0.2,0.3-0.5,0.4-0.8,0.4c0,0-0.2,0-0.3,0
		c0,0.1,0,0.3,0,0.4C15,9.1,16.5,9.1,16.9,9.1z M20,5C20,5,20,5,20,5C20,5,20,5,20,5z"/>
	<path id="XMLID_523_" class="st0" d="M1.6,1.7c0.4-0.1,1-0.2,1.3-0.2c0.2,0,0.4,0,1-0.1c0-0.2,0.1-0.4,0.4-0.6c-0.2,0-0.4,0-0.5,0
		c-0.4,0-0.7,0-1.3,0.1C1.9,0.9,1.3,1.1,1,1.3c0,0,0,0,0,0c0,0-0.1,0.1-0.1,0.1C1.1,1.5,1.4,1.6,1.6,1.7C1.6,1.7,1.6,1.7,1.6,1.7z"
		/>
	<path id="XMLID_522_" class="st1" d="M2.5,2.5C2.2,3.3,2.3,4.1,2.3,5h0.8l0-2.9C2.8,2.1,2.5,2.2,2.5,2.5z"/>
	<path id="XMLID_519_" class="st2" d="M14.4,1.3c0-0.1,0-0.3,0-0.4"/>
	<path id="XMLID_518_" class="st2" d="M8.8,0.8C8.9,1,8.7,1.1,8.6,1.3"/>
	<path id="XMLID_517_" class="st3" d="M14.8,0.9L14.8,0.9c0,0-0.1-0.1-0.1-0.1s-0.1,0-0.1,0v0C14.7,0.9,14.7,0.9,14.8,0.9z"/>
	<path id="XMLID_516_" class="st4" d="M12.1,5C12.1,5,12.1,5,12.1,5C12.1,5,12.1,5,12.1,5z"/>
	<path id="XMLID_514_" class="st2" d="M4.3,0.8C3.9,1,3.9,1.2,3.9,1.4"/>
	<polygon id="XMLID_511_" class="st4" points="8.5,1.9 8.5,1.9 8.5,1.9 	"/>
	<path id="XMLID_510_" class="st5" d="M8.5,1.9C7,1.9,5.8,2,5.6,2C5.4,2,5.3,2,5.1,2c0,0,0.1,0,0.1,0.1c1.1,0,2.1,0,3.2,0
		C8.4,2,8.5,1.9,8.5,1.9z"/>
	<path id="XMLID_509_" class="st5" d="M11.4,1.9c0.1,0,0.3,0,0.4-0.1c-0.1,0-0.2,0-0.3,0c-0.2,0-1.9,0-3.1,0.1c0,0,0,0,0,0
		c0,0,0,0,0,0c0,0,0,0,0,0c0,0,0,0.1,0,0.1C9.4,2,10.4,1.9,11.4,1.9z"/>
	<path id="XMLID_505_" class="st4" d="M0.6,5L0.6,5C0.6,5,0.6,5,0.6,5z"/>
	<path id="XMLID_504_" class="st1" d="M1.6,1.7C1.4,1.6,1.1,1.5,0.8,1.4c0,0,0,0,0,0L1.6,1.7C1.6,1.7,1.6,1.7,1.6,1.7z"/>
	<path id="XMLID_503_" class="st4" d="M0.6,5L0.6,5C0.6,5,0.6,5,0.6,5z"/>
	<g id="XMLID_499_">
		<path id="XMLID_501_" class="st4" d="M13.2,1.7C13.2,1.6,13.2,1.6,13.2,1.7C13.2,1.6,13.2,1.6,13.2,1.7z"/>
		
			<linearGradient id="XMLID_2_" gradientUnits="userSpaceOnUse" x1="6.8668" y1="3.8235" x2="5.4259" y2="3.6489" gradientTransform="matrix(-1.346898e-010 1 -1 -1.346898e-010 14.8032 -4.0259)">
			<stop  offset="0" style="stop-color:#FFFFFF"/>
			<stop  offset="1" style="stop-color:#000000"/>
		</linearGradient>
		<path id="XMLID_500_" class="st6" d="M12.2,2c0.2-0.1,0.5-0.1,0.9-0.2c0,0,0,0,0,0c0.1-0.1,0.2-0.3,0.2-0.4l0-0.1c0,0-1.9,0-4,0
			C9.1,1.5,9,1.7,9,1.9c1.3,0,2.5-0.1,2.6-0.1C11.8,1.8,12.1,1.9,12.2,2z"/>
	</g>
	<path id="XMLID_498_" class="st1" d="M9.3,1.3c-0.1,0-0.6,0-0.7,0c0,0.2-0.1,0.4-0.1,0.6c0.1,0,0.4,0,0.5,0C9,1.7,9.1,1.5,9.3,1.3z
		"/>
	
		<linearGradient id="XMLID_3_" gradientUnits="userSpaceOnUse" x1="6.9286" y1="8.3436" x2="5.204" y2="8.5837" gradientTransform="matrix(-1.346898e-010 1 -1 -1.346898e-010 14.8032 -4.0259)">
		<stop  offset="0" style="stop-color:#FFFFFF"/>
		<stop  offset="1" style="stop-color:#000000"/>
	</linearGradient>
	<path id="XMLID_497_" class="st7" d="M4,1.5c0.3,0.1,0.6,0.3,0.8,0.4c0,0,0.1,0,0.1,0.1c0.2,0,0.4,0,0.5,0c0.2,0,1.4,0,2.9-0.1
		c0-0.2,0.1-0.4,0.1-0.6c-1.6,0-2.9,0-3.1,0c-0.4,0-1,0-1.6,0.1C3.9,1.5,4,1.5,4,1.5z"/>
	
		<linearGradient id="XMLID_4_" gradientUnits="userSpaceOnUse" x1="5.4149" y1="11.715" x2="6.3504" y2="11.715" gradientTransform="matrix(-1.346898e-010 1 -1 -1.346898e-010 14.8032 -4.0259)">
		<stop  offset="0" style="stop-color:#FFFFFF"/>
		<stop  offset="1" style="stop-color:#000000"/>
	</linearGradient>
	<path id="XMLID_496_" class="st8" d="M3.7,2.1C4.1,2,4.6,2,5,2c0,0-0.1,0-0.1-0.1C4.6,1.8,4.3,1.7,4,1.5C4,1.5,3.9,1.5,3.9,1.4
		c-0.4,0-0.8,0-0.9,0C2.6,1.5,1.7,1.5,1.3,1.9C1.3,1.9,1.2,2,1.1,2.1l0.9,0.2C2.3,2.2,3.2,2.1,3.7,2.1z"/>
	<path id="XMLID_495_" class="st0" d="M3.5,1.9c0.5,0,0.7-0.1,1.2-0.1C4.5,1.7,4.4,1.7,4.1,1.6C4.1,1.5,4,1.5,3.9,1.4
		c-0.3,0-0.8,0-1,0.1c-0.6,0-1.2,0.2-1.2,0.2S2,1.8,2.4,1.9C2.9,2,3.2,1.9,3.5,1.9z"/>
	<path id="XMLID_494_" class="st1" d="M2,2.3C2,2.3,2.1,2.3,2,2.3L1.1,2.1c0,0,0,0,0,0.1l0.8,0.3C2,2.4,2,2.4,2,2.3z"/>
	
		<linearGradient id="XMLID_5_" gradientUnits="userSpaceOnUse" x1="6.3203" y1="-3.5373" x2="5.8836" y2="-4.4397" gradientTransform="matrix(-1.346898e-010 1 -1 -1.346898e-010 14.8032 -4.0259)">
		<stop  offset="0" style="stop-color:#FFFFFF"/>
		<stop  offset="1" style="stop-color:#000000"/>
	</linearGradient>
	<path id="XMLID_493_" class="st9" d="M18.2,1.6c0.4,0.2,0.7,0.4,1,0.8c0.1,0.1,0.2,0.3,0.3,0.4c0,0,0,0,0.1,0c0,0,0.1,0.1,0.1,0.1
		c0,0,0-0.2-0.1-0.2c-0.3-0.5-0.7-0.9-1.2-1.2c-0.1,0-0.2-0.1-0.2-0.1c-0.2,0-0.3,0-0.5,0.1C17.8,1.5,18,1.5,18.2,1.6z"/>
	<path id="XMLID_492_" class="st0" d="M1,1.4c0.1,0,0.1,0,0.2-0.1c0,0,0-0.1,0-0.1C1.1,1.2,1,1.3,1,1.4C0.9,1.3,0.9,1.3,1,1.4
		C0.8,1.4,0.7,1.5,0.7,1.7C0.7,1.6,0.8,1.4,1,1.4z"/>
	<path id="XMLID_491_" class="st1" d="M10.1,2.5c0,0-5.2,0.2-5.8,0.2s-0.9,0.1-1,0s0-0.2,0.2-0.2c0.2-0.1,2.4-0.3,3.5-0.2
		c1,0,3.7-0.1,4-0.1c0.3,0,0.7,0.1,0.8,0.1s0.2,0.1,0.1,0.2c-0.1,0-0.5,0-0.9,0C10.7,2.4,10.1,2.5,10.1,2.5z"/>
	<path id="XMLID_490_" class="st10" d="M13.2,1l-0.4-0.9c0,0,0,0,0,0c0,0,0,0,0,0C12.9,0.4,13,0.7,13.1,1c0,0,0,0,0,0
		C13.1,1,13.1,1,13.2,1C13.2,1,13.2,1,13.2,1C13.2,1,13.2,1,13.2,1C13.2,1,13.2,1,13.2,1z"/>
	<path id="XMLID_489_" class="st10" d="M14.3,1.3C14,1.1,14,1.1,13.8,0.9c-0.1-0.1-0.1-0.1-0.2-0.2c0,0.1,0,0.2-0.1,0.3
		c0,0-0.1,0.1-0.2,0.1c0,0,0,0.1,0,0.1c0,0.1,0,0.1-0.1,0.2c-0.1,0.1-0.2,0.4-0.2,0.4s0.4-0.1,0.5-0.1c0.1,0,1.5-0.2,1.5-0.2
		S14.9,1.3,14.3,1.3z"/>
	<path id="XMLID_488_" class="st1" d="M13.5,0.9c0-0.1,0.1-0.2,0.1-0.3c-0.1-0.1-0.2-0.2-0.3-0.3c-0.1-0.1-0.2-0.2-0.4-0.2L13.2,1
		c0,0,0,0,0.1,0c0,0,0,0,0.1,0C13.4,1,13.5,1,13.5,0.9z"/>
	<path id="XMLID_487_" class="st11" d="M10,0.9C10,0.9,10,0.9,10,0.9c0-0.1-0.1-0.1-0.2-0.1c-0.1,0-0.2,0-0.3,0
		c-0.1,0-0.3,0.1-0.4,0.1c0,0,0,0,0,0c0.1,0,0.1,0,0.2,0c0.1-0.1,0.3-0.1,0.4-0.1c0,0,0.1,0,0.1,0.1L10,0.9z"/>
	<path id="XMLID_486_" class="st11" d="M5.7,0.9C5.7,0.9,5.7,0.9,5.7,0.9c0-0.1-0.1-0.1-0.2-0.1c-0.1,0-0.2,0-0.3,0
		C5.1,0.8,5,0.8,4.9,0.9c0,0,0,0,0,0c0.1,0,0.1,0,0.2,0c0.1-0.1,0.3-0.1,0.4-0.1c0,0,0.1,0,0.1,0.1L5.7,0.9z"/>
	<path id="XMLID_485_" class="st0" d="M1.6,8.3c0.4,0.1,1,0.2,1.3,0.2c0.2,0,0.4,0,1,0.1c0,0.2,0.1,0.4,0.4,0.6c-0.2,0-0.4,0-0.5,0
		c-0.4,0-0.7,0-1.3-0.1C1.9,9.1,1.3,8.9,1,8.7c0,0,0,0,0,0c0,0-0.1-0.1-0.1-0.1C1.1,8.5,1.4,8.4,1.6,8.3C1.6,8.3,1.6,8.3,1.6,8.3z"
		/>
	<path id="XMLID_484_" class="st1" d="M2.5,7.5C2.2,6.7,2.3,5.8,2.3,5h0.8l0,2.9C2.8,7.9,2.5,7.8,2.5,7.5z"/>
	<path id="XMLID_481_" class="st2" d="M14.4,8.7c0,0.1,0,0.3,0,0.4"/>
	<path id="XMLID_520_" class="st2" d="M8.7,8.7"/>
	<path id="XMLID_79_" class="st2" d="M8.8,9.2"/>
	<path id="XMLID_479_" class="st3" d="M14.8,9.1L14.8,9.1c0,0-0.1,0.1-0.1,0.1s-0.1,0-0.1,0v0C14.7,9.1,14.7,9.1,14.8,9.1z"/>
	<path id="XMLID_478_" class="st4" d="M12.1,5C12.1,5,12.1,5,12.1,5C12.1,5,12.1,5,12.1,5z"/>
	<path id="XMLID_476_" class="st2" d="M4.3,9.2C3.9,9,3.9,8.8,3.9,8.6"/>
	<path id="XMLID_473_" class="st5" d="M3.1,5l0-2.5c-0.2,0-0.5,0.1-0.6,0.3C2.3,3.5,2.1,4.2,2.2,5c0,0.8,0.1,1.5,0.3,2.2
		C2.6,7.5,2.8,7.5,3,7.5L3.1,5z"/>
	<path id="XMLID_472_" class="st5" d="M3,7.6c-0.2,0-0.5-0.1-0.6-0.3C2.3,6.5,2.1,5.7,2.1,5c0-0.8,0.1-1.5,0.3-2.2
		C2.5,2.5,2.8,2.4,3,2.4l0-0.3c-0.4,0-0.8,0.1-1,0.2c0,0,0,0,0,0c0,0-0.1,0.1-0.1,0.1C1.7,2.7,1.5,3.2,1.4,3.7
		C1.3,4.2,1.3,4.9,1.3,5c0,0.1,0,0.8,0.1,1.3c0.1,0.5,0.3,1.1,0.6,1.3C2,7.6,2,7.6,2,7.7c0,0,0,0,0,0c0.2,0.1,0.6,0.2,1,0.2L3,7.6z"
		/>
	<polygon id="XMLID_471_" class="st4" points="8.5,8.1 8.5,8.1 8.5,8.1 	"/>
	<path id="XMLID_470_" class="st5" d="M8.5,8.1C7,8.1,5.8,8,5.6,8C5.4,8,5.3,8,5.1,8c0,0,0.1,0,0.1-0.1c1.1,0,2.1,0,3.2,0
		C8.4,8,8.5,8.1,8.5,8.1z"/>
	<path id="XMLID_469_" class="st5" d="M11.4,8.1c0.1,0,0.3,0,0.4,0.1c-0.1,0-0.2,0-0.3,0c-0.2,0-1.9,0-3.1-0.1c0,0,0,0,0,0
		c0,0,0,0,0,0c0,0,0,0,0,0c0,0,0-0.1,0-0.1C9.4,8,10.4,8.1,11.4,8.1z"/>
	<path id="XMLID_465_" class="st4" d="M0.6,5L0.6,5C0.6,5,0.6,5,0.6,5z"/>
	<path id="XMLID_464_" class="st1" d="M1.6,8.3C1.4,8.4,1.1,8.5,0.8,8.6c0,0,0,0,0,0L1.6,8.3C1.6,8.3,1.6,8.3,1.6,8.3z"/>
	<path id="XMLID_461_" class="st0" d="M0.8,8.6l0.8-0.3c0,0,0,0-0.1,0C1.5,8.2,1.4,8.2,1.3,8.1C1.2,8.1,1.2,8,1.1,7.9c0,0,0,0,0-0.1
		C1,7.7,1,7.6,0.9,7.4C0.7,7,0.6,6.4,0.6,5.9c0-0.3,0-0.7,0-0.9c0,0,0,0,0,0c0,0,0,0,0,0c0-0.2,0-0.6,0-0.9c0-0.5,0.1-1.1,0.3-1.5
		C1,2.4,1,2.3,1.1,2.1c0,0,0,0,0-0.1C1.2,2,1.2,1.9,1.3,1.9c0.1-0.1,0.1-0.1,0.2-0.1c0,0,0,0,0.1,0L0.8,1.4c-0.3,0.4-0.6,1.2-0.7,2
		c0,0.4-0.1,1.1-0.1,1.5c0,0,0,0,0,0c0,0,0,0,0,0c0,0.5,0,1.2,0.1,1.6C0.2,7.3,0.5,8.2,0.8,8.6z M0.1,5C0.1,5,0.1,5,0.1,5
		C0.1,5,0.1,5,0.1,5z"/>
	<path id="XMLID_460_" class="st4" d="M0.6,5L0.6,5C0.6,5,0.6,5,0.6,5z"/>
	<g id="XMLID_454_">
		
			<linearGradient id="XMLID_6_" gradientUnits="userSpaceOnUse" x1="9.0068" y1="2.5067" x2="9.0089" y2="2.5067" gradientTransform="matrix(-1.346898e-010 1 -1 -1.346898e-010 14.8032 -4.0259)">
			<stop  offset="0" style="stop-color:#FFFFFF"/>
			<stop  offset="1" style="stop-color:#000000"/>
		</linearGradient>
		<path id="XMLID_458_" class="st12" d="M12.3,5C12.3,5,12.3,5,12.3,5C12.3,5,12.3,5,12.3,5z"/>
		
			<linearGradient id="XMLID_7_" gradientUnits="userSpaceOnUse" x1="3.1186" y1="1.2593" x2="11.5672" y2="1.0191" gradientTransform="matrix(-1.346898e-010 1 -1 -1.346898e-010 14.8032 -4.0259)">
			<stop  offset="0" style="stop-color:#FFFFFF"/>
			<stop  offset="1" style="stop-color:#000000"/>
		</linearGradient>
		<path id="XMLID_457_" class="st13" d="M14.9,8.2c0.1-0.3,0.2-0.7,0.2-1.1c0.1-0.8,0.2-1.6,0.2-2.1c0-0.5-0.1-1.3-0.2-2
			c-0.1-0.4-0.1-0.9-0.2-1.1c0-0.1-0.1-0.1-0.2-0.1c-0.1,0-0.4,0.1-0.4,0.1c-0.4,0.1-1.5,0.3-2.1,0.4c-0.1,0-0.1,0.1-0.1,0.2
			c0.1,0.2,0.1,0.4,0.1,0.9c0.1,0.7,0.1,1,0.1,1.7c0,0.6,0,1-0.1,1.7c-0.1,0.5-0.1,0.7-0.1,0.9c0,0.1,0,0.2,0.1,0.2
			c0.6,0.2,1.7,0.3,2.1,0.4c0,0,0.2,0,0.4,0.1C14.8,8.3,14.9,8.2,14.9,8.2z"/>
		
			<linearGradient id="XMLID_8_" gradientUnits="userSpaceOnUse" x1="9.0068" y1="2.4585" x2="9.0089" y2="2.4585" gradientTransform="matrix(-1.346898e-010 1 -1 -1.346898e-010 14.8032 -4.0259)">
			<stop  offset="0" style="stop-color:#FFFFFF"/>
			<stop  offset="1" style="stop-color:#000000"/>
		</linearGradient>
		<path id="XMLID_456_" class="st14" d="M12.3,5C12.3,5,12.4,5,12.3,5C12.4,5,12.3,5,12.3,5z"/>
		
			<linearGradient id="XMLID_9_" gradientUnits="userSpaceOnUse" x1="9.0002" y1="-0.5776" x2="9.0155" y2="-0.5776" gradientTransform="matrix(-1.346898e-010 1 -1 -1.346898e-010 14.8032 -4.0259)">
			<stop  offset="0" style="stop-color:#FFFFFF"/>
			<stop  offset="1" style="stop-color:#000000"/>
		</linearGradient>
		<path id="XMLID_455_" class="st15" d="M15.4,5C15.4,5,15.4,5,15.4,5C15.4,5,15.4,5,15.4,5z"/>
	</g>
	<g id="XMLID_451_">
		<path id="XMLID_453_" class="st4" d="M13.2,8.3C13.2,8.4,13.2,8.4,13.2,8.3C13.2,8.4,13.2,8.4,13.2,8.3z"/>
		
			<linearGradient id="XMLID_10_" gradientUnits="userSpaceOnUse" x1="3503.6248" y1="3.8235" x2="3502.1841" y2="3.6489" gradientTransform="matrix(1.795868e-010 -1 -1 -1.795868e-010 14.8032 3510.7839)">
			<stop  offset="0" style="stop-color:#FFFFFF"/>
			<stop  offset="1" style="stop-color:#000000"/>
		</linearGradient>
		<path id="XMLID_452_" class="st16" d="M12.2,8c0.2,0.1,0.5,0.1,0.9,0.2c0,0,0,0,0,0c0.1,0.1,0.2,0.3,0.2,0.4l0,0.1c0,0-1.9,0-4,0
			C9.1,8.5,9,8.3,9,8.1c1.3,0,2.5,0.1,2.6,0.1C11.8,8.2,12.1,8.1,12.2,8z"/>
	</g>
	<path id="XMLID_450_" class="st1" d="M9.3,8.7c-0.1,0-0.6,0-0.7,0c0-0.2-0.1-0.4-0.1-0.6c0.1,0,0.4,0,0.5,0C9,8.3,9.1,8.5,9.3,8.7z
		"/>
	
		<linearGradient id="XMLID_11_" gradientUnits="userSpaceOnUse" x1="11.2703" y1="8.493" x2="12.6457" y2="8.5585" gradientTransform="matrix(-1.346898e-010 1 -1 -1.346898e-010 14.8032 -4.0259)">
		<stop  offset="0" style="stop-color:#FFFFFF"/>
		<stop  offset="1" style="stop-color:#000000"/>
	</linearGradient>
	<path id="XMLID_449_" class="st17" d="M4,8.5c0.3-0.1,0.6-0.3,0.8-0.4c0,0,0.1,0,0.1-0.1c0.2,0,0.4,0,0.5,0c0.2,0,1.4,0,2.9,0.1
		c0,0.2,0.1,0.4,0.1,0.6c-1.6,0-2.9,0-3.1,0c-0.4,0-1,0-1.6-0.1C3.9,8.5,4,8.5,4,8.5z"/>
	
		<linearGradient id="XMLID_12_" gradientUnits="userSpaceOnUse" x1="3502.1731" y1="11.715" x2="3503.1084" y2="11.715" gradientTransform="matrix(1.795868e-010 -1 -1 -1.795868e-010 14.8032 3510.7839)">
		<stop  offset="0" style="stop-color:#FFFFFF"/>
		<stop  offset="1" style="stop-color:#000000"/>
	</linearGradient>
	<path id="XMLID_448_" class="st18" d="M3.7,7.9C4.1,8,4.6,8,5,8c0,0-0.1,0-0.1,0.1C4.6,8.2,4.3,8.3,4,8.5C4,8.5,3.9,8.5,3.9,8.6
		c-0.4,0-0.8,0-0.9,0C2.6,8.5,1.7,8.5,1.3,8.1C1.3,8.1,1.2,8,1.1,7.9l0.9-0.2C2.3,7.8,3.2,7.9,3.7,7.9z"/>
	<path id="XMLID_447_" class="st0" d="M3.5,8.1c0.5,0,0.7,0.1,1.2,0.1C4.5,8.3,4.4,8.3,4.1,8.4C4.1,8.5,4,8.5,3.9,8.6
		c-0.3,0-0.8,0-1-0.1c-0.6,0-1.2-0.2-1.2-0.2S2,8.2,2.4,8.1C2.9,8,3.2,8.1,3.5,8.1z"/>
	<path id="XMLID_446_" class="st1" d="M2,7.7C2,7.7,2.1,7.7,2,7.7L1.1,7.9c0,0,0,0,0-0.1l0.8-0.3C2,7.6,2,7.6,2,7.7z"/>
	<g id="XMLID_438_">
		
			<linearGradient id="XMLID_13_" gradientUnits="userSpaceOnUse" x1="9.0072" y1="14.2059" x2="9.0072" y2="14.206" gradientTransform="matrix(-1.346898e-010 1 -1 -1.346898e-010 14.8032 -4.0259)">
			<stop  offset="0" style="stop-color:#FFFFFF"/>
			<stop  offset="1" style="stop-color:#000000"/>
		</linearGradient>
		<path id="XMLID_445_" class="st19" d="M0.6,5C0.6,5,0.6,5,0.6,5C0.6,5,0.6,5,0.6,5z"/>
		
			<linearGradient id="XMLID_14_" gradientUnits="userSpaceOnUse" x1="9.0042" y1="14.2058" x2="9.0042" y2="14.2062" gradientTransform="matrix(-1.346898e-010 1 -1 -1.346898e-010 14.8032 -4.0259)">
			<stop  offset="0" style="stop-color:#FFFFFF"/>
			<stop  offset="1" style="stop-color:#000000"/>
		</linearGradient>
		<path id="XMLID_444_" class="st20" d="M0.6,5C0.6,5,0.6,5,0.6,5C0.6,5,0.6,5,0.6,5z"/>
		
			<linearGradient id="XMLID_15_" gradientUnits="userSpaceOnUse" x1="9.0017" y1="14.2061" x2="9.0017" y2="14.2062" gradientTransform="matrix(-1.346898e-010 1 -1 -1.346898e-010 14.8032 -4.0259)">
			<stop  offset="0" style="stop-color:#FFFFFF"/>
			<stop  offset="1" style="stop-color:#000000"/>
		</linearGradient>
		<path id="XMLID_443_" class="st21" d="M0.6,5C0.6,5,0.6,5,0.6,5L0.6,5z"/>
		
			<linearGradient id="XMLID_16_" gradientUnits="userSpaceOnUse" x1="9.0115" y1="14.2061" x2="9.0115" y2="14.2061" gradientTransform="matrix(-1.346898e-010 1 -1 -1.346898e-010 14.8032 -4.0259)">
			<stop  offset="0" style="stop-color:#FFFFFF"/>
			<stop  offset="1" style="stop-color:#000000"/>
		</linearGradient>
		<path id="XMLID_442_" class="st22" d="M0.6,5C0.6,5,0.6,5,0.6,5C0.6,5,0.6,5,0.6,5z"/>
		
			<linearGradient id="XMLID_17_" gradientUnits="userSpaceOnUse" x1="9.0916" y1="11.7599" x2="9.0172" y2="13.9694" gradientTransform="matrix(-1.346898e-010 1 -1 -1.346898e-010 14.8032 -4.0259)">
			<stop  offset="0" style="stop-color:#FFFFFF"/>
			<stop  offset="1" style="stop-color:#000000"/>
		</linearGradient>
		<path id="XMLID_441_" class="st23" d="M1.9,7.6C1.7,7.3,1.5,6.8,1.4,6.3C1.3,5.8,1.3,5,1.3,5l0,0c0,0,0-0.8,0.1-1.3
			c0.1-0.5,0.3-1,0.6-1.3L1.1,2.1C1,2.3,1,2.4,0.9,2.6C0.7,3,0.6,3.6,0.6,4.1c0,0.3,0,0.9,0,0.9s0,0.6,0,0.9c0,0.5,0.1,1.1,0.3,1.5
			C1,7.6,1,7.7,1.1,7.9L1.9,7.6z"/>
		
			<linearGradient id="XMLID_18_" gradientUnits="userSpaceOnUse" x1="9.0085" y1="14.206" x2="9.0085" y2="14.206" gradientTransform="matrix(-1.346898e-010 1 -1 -1.346898e-010 14.8032 -4.0259)">
			<stop  offset="0" style="stop-color:#FFFFFF"/>
			<stop  offset="1" style="stop-color:#000000"/>
		</linearGradient>
		<path id="XMLID_440_" class="st24" d="M0.6,5C0.6,5,0.6,5,0.6,5C0.6,5,0.6,5,0.6,5z"/>
		
			<linearGradient id="XMLID_19_" gradientUnits="userSpaceOnUse" x1="9.0139" y1="14.2062" x2="9.0139" y2="14.2062" gradientTransform="matrix(-1.346898e-010 1 -1 -1.346898e-010 14.8032 -4.0259)">
			<stop  offset="0" style="stop-color:#FFFFFF"/>
			<stop  offset="1" style="stop-color:#000000"/>
		</linearGradient>
		<path id="XMLID_439_" class="st25" d="M0.6,5C0.6,5,0.6,5,0.6,5L0.6,5z"/>
	</g>
	<path id="XMLID_437_" class="st1" d="M10.2,7.3c0.1-0.2,0.4-0.3,0.6-0.4C11,6.7,11,6.6,11,6.2C11,5.8,11,5,11,5s0-0.8,0-1.2
		c0-0.4-0.1-0.5-0.2-0.7c-0.2-0.1-0.5-0.3-0.6-0.4c-0.1-0.2-0.1-0.2-0.1-0.2L5.5,2.6c0,0-0.1,0.1-0.2,0.2C5.2,3.1,4.9,3.2,4.7,3.3
		C4.5,3.5,4.4,3.7,4.4,4.1c0,0.3,0,0.9,0,0.9s0,0.6,0,0.9c0,0.3,0.1,0.6,0.3,0.8c0.2,0.1,0.5,0.3,0.6,0.4c0.1,0.2,0.2,0.2,0.2,0.2
		l4.6,0.2C10.1,7.5,10.1,7.4,10.2,7.3z"/>
	
		<linearGradient id="XMLID_20_" gradientUnits="userSpaceOnUse" x1="3.8595" y1="6.955" x2="11.0637" y2="7.0205" gradientTransform="matrix(-1.346898e-010 1 -1 -1.346898e-010 14.8032 -4.0259)">
		<stop  offset="0" style="stop-color:#FFFFFF"/>
		<stop  offset="1" style="stop-color:#000000"/>
	</linearGradient>
	<path id="XMLID_436_" class="st26" d="M10.1,7.1c0.1-0.1,0.4-0.3,0.6-0.4c0.2-0.1,0.2-0.3,0.2-0.6c0-0.4,0-1.2,0-1.2s0-0.8,0-1.1
		c0-0.4-0.1-0.5-0.2-0.6c-0.2-0.1-0.4-0.2-0.6-0.4C10,2.7,10,2.6,10,2.6L5.7,2.8c0,0-0.1,0.1-0.1,0.2C5.5,3.2,5.1,3.3,5,3.4
		C4.8,3.6,4.7,3.8,4.7,4.1c0,0.3,0,0.8,0,0.8s0,0.6,0,0.9S4.8,6.4,5,6.6C5.1,6.7,5.5,6.8,5.6,7s0.1,0.2,0.1,0.2L10,7.4
		C10,7.4,10,7.3,10.1,7.1z"/>
	
		<linearGradient id="XMLID_21_" gradientUnits="userSpaceOnUse" x1="9.0373" y1="-4.6792" x2="9.0222" y2="-5.3593" gradientTransform="matrix(-1.346898e-010 1 -1 -1.346898e-010 14.8032 -4.0259)">
		<stop  offset="0" style="stop-color:#FFFFFF"/>
		<stop  offset="1" style="stop-color:#000000"/>
	</linearGradient>
	<path id="XMLID_433_" class="st27" d="M20,5c0-0.1,0-0.2,0-0.3c0,0-0.1,0.1-0.1,0.1c0,0.1,0,0.2,0,0.2c0,0.1,0,0.2,0,0.2
		c0,0,0,0.1,0.1,0.1C20,5.2,20,5.1,20,5z M20,5C20,5,20,5,20,5C20,5,20,5,20,5z"/>
	<path id="XMLID_432_" class="st5" d="M17.4,8.5c0.3,0,0.5-0.1,0.8-0.2c0.4-0.2,0.7-0.4,1-0.8c0.1-0.1,0.2-0.3,0.3-0.4
		c0.1-0.2,0.2-0.5,0.2-0.8c0.1-0.5,0.1-1.1,0.1-1.4c0-0.3,0-0.9-0.1-1.4c0-0.2-0.1-0.6-0.2-0.8c-0.1-0.2-0.2-0.3-0.3-0.4
		c-0.3-0.3-0.6-0.6-1-0.8c-0.2-0.1-0.5-0.1-0.8-0.2c-0.5,0-0.9,0-1.4,0c-0.2,0-0.5,0-0.6,0.1c0.1,0,0.1,0.1,0.1,0.2
		C15.7,2,15.8,2.5,15.9,3C16.1,3.6,16.1,5,16.1,5s0,1.4-0.1,2c-0.1,0.6-0.2,1.1-0.4,1.3c0,0.1-0.1,0.1-0.1,0.2
		c0.2,0.1,0.4,0.1,0.6,0.1C16.5,8.6,16.9,8.6,17.4,8.5z"/>
	
		<linearGradient id="XMLID_22_" gradientUnits="userSpaceOnUse" x1="3503.0784" y1="-3.5373" x2="3502.6418" y2="-4.4397" gradientTransform="matrix(1.795868e-010 -1 -1 -1.795868e-010 14.8032 3510.7839)">
		<stop  offset="0" style="stop-color:#FFFFFF"/>
		<stop  offset="1" style="stop-color:#000000"/>
	</linearGradient>
	<path id="XMLID_431_" class="st28" d="M18.2,8.4c0.4-0.2,0.7-0.4,1-0.8c0.1-0.1,0.2-0.3,0.3-0.4c0,0,0,0,0.1,0c0,0,0.1-0.1,0.1-0.1
		c0,0,0,0.2-0.1,0.2c-0.3,0.5-0.7,0.9-1.2,1.2c-0.1,0-0.2,0.1-0.2,0.1c-0.2,0-0.3,0-0.5-0.1C17.8,8.5,18,8.5,18.2,8.4z"/>
	<path id="XMLID_430_" class="st0" d="M1,8.6c0.1,0,0.1,0,0.2,0.1c0,0,0,0.1,0,0.1C1.1,8.8,1,8.7,1,8.6C0.9,8.7,0.9,8.7,1,8.6
		C0.8,8.6,0.7,8.5,0.7,8.3C0.7,8.4,0.8,8.6,1,8.6z"/>
	<path id="XMLID_429_" class="st1" d="M10.1,7.5c0,0-5.2-0.2-5.8-0.2c-0.6,0-0.9-0.1-1,0s0,0.2,0.2,0.2c0.2,0.1,2.4,0.3,3.5,0.2
		c1,0,3.7,0.1,4,0.1c0.3,0,0.7-0.1,0.8-0.1s0.2-0.1,0.1-0.2c-0.1,0-0.5,0-0.9,0C10.7,7.6,10.1,7.5,10.1,7.5z"/>
	<path id="XMLID_428_" class="st10" d="M13.2,9l-0.4,0.9c0,0,0,0,0,0c0,0,0,0,0,0C12.9,9.6,13,9.3,13.1,9c0,0,0,0,0,0
		C13.1,9,13.1,9,13.2,9C13.2,9,13.2,9,13.2,9C13.2,9,13.2,9,13.2,9C13.2,9,13.2,9,13.2,9z"/>
	<path id="XMLID_427_" class="st10" d="M14.3,8.7C14,8.9,14,8.9,13.8,9.1c-0.1,0.1-0.1,0.1-0.2,0.2c0-0.1,0-0.2-0.1-0.3
		c0,0-0.1-0.1-0.2-0.1c0,0,0-0.1,0-0.1c0-0.1,0-0.1-0.1-0.2c-0.1-0.1-0.2-0.4-0.2-0.4s0.4,0.1,0.5,0.1c0.1,0,1.5,0.2,1.5,0.2
		S14.9,8.7,14.3,8.7z"/>
	<path id="XMLID_426_" class="st1" d="M13.5,9.1c0,0.1,0.1,0.2,0.1,0.3c-0.1,0.1-0.2,0.2-0.3,0.3c-0.1,0.1-0.2,0.2-0.4,0.2L13.2,9
		c0,0,0,0,0.1,0c0,0,0,0,0.1,0C13.4,9,13.5,9,13.5,9.1z"/>
	<path id="XMLID_425_" class="st11" d="M10,9.1C10,9.1,10,9.1,10,9.1c0,0.1-0.1,0.1-0.2,0.1c-0.1,0-0.2,0-0.3,0
		c-0.1,0-0.3-0.1-0.4-0.1c0,0,0,0,0,0c0.1,0,0.1,0,0.2,0c0.1,0.1,0.3,0.1,0.4,0.1c0,0,0.1,0,0.1-0.1L10,9.1z"/>
	<path id="XMLID_424_" class="st11" d="M5.7,9.1C5.7,9.1,5.7,9.1,5.7,9.1c0,0.1-0.1,0.1-0.2,0.1c-0.1,0-0.2,0-0.3,0
		C5.1,9.2,5,9.2,4.9,9.1c0,0,0,0,0,0c0.1,0,0.1,0,0.2,0c0.1,0.1,0.3,0.1,0.4,0.1c0,0,0.1,0,0.1-0.1L5.7,9.1z"/>
	<path id="XMLID_480_" class="st2" d="M8.8,9.2C8.9,9,8.7,8.9,8.6,8.7"/>
</g>
</svg>
