<svg id="e9c47c38-9f3c-4290-992f-d96757b4d4eb" data-name="Layer 1" xmlns="http://www.w3.org/2000/svg" width="900" height="900" viewBox="0 0 900 900">
  <title>road-path</title>
  <g>
    <line x1="485.95" y1="900" x2="485.95" fill="none" stroke="#0071bf" stroke-miterlimit="10"/>
    <line x1="503.95" y1="900" x2="503.95" fill="none" stroke="#0071bf" stroke-miterlimit="10"/>
    <line x1="467.98" y1="900" x2="467.98" fill="none" stroke="#0071bf" stroke-miterlimit="10"/>
  </g>
  <g>
    <line x1="900" y1="485.98" y2="485.98" fill="none" stroke="#0071bf" stroke-miterlimit="10"/>
    <line x1="900" y1="467.98" y2="467.98" fill="none" stroke="#0071bf" stroke-miterlimit="10"/>
    <line x1="900" y1="503.95" y2="503.95" fill="none" stroke="#0071bf" stroke-miterlimit="10"/>
  </g>
  <g>
    <line x1="900" y1="414.06" y2="414.06" fill="none" stroke="#0071bf" stroke-miterlimit="10"/>
    <line x1="900" y1="396.06" y2="396.06" fill="none" stroke="#0071bf" stroke-miterlimit="10"/>
    <line x1="900" y1="432.03" y2="432.03" fill="none" stroke="#0071bf" stroke-miterlimit="10"/>
  </g>
  <g>
    <line x1="414.01" x2="414.01" y2="900" fill="none" stroke="#0071bf" stroke-miterlimit="10"/>
    <line x1="396.01" x2="396.01" y2="900" fill="none" stroke="#0071bf" stroke-miterlimit="10"/>
    <line x1="431.98" x2="431.98" y2="900" fill="none" stroke="#0071bf" stroke-miterlimit="10"/>
  </g>
  <path d="M504,554.5c0-27.94,22.38-50.55,50-50.55" transform="translate(-0.02 0)" fill="none" stroke="#0071bf" stroke-miterlimit="10" stroke-width="1.01"/>
  <path d="M504,346a50,50,0,0,0,50,50.11" transform="translate(-0.02 0)" fill="none" stroke="#0071bf" stroke-miterlimit="10"/>
  <path d="M396,554.5c0-27.94-22.38-50.55-50-50.55" transform="translate(-0.02 0)" fill="none" stroke="#0071bf" stroke-miterlimit="10" stroke-width="1.01"/>
  <path d="M396,346a50,50,0,0,1-50,50.11" transform="translate(-0.02 0)" fill="none" stroke="#0071bf" stroke-miterlimit="10"/>
  <g>
    <g>
      <line x1="456.32" y1="546" x2="462.32" y2="546" fill="none" stroke="#000" stroke-linecap="round" stroke-miterlimit="10" stroke-width="0.5"/>
      <line x1="471.98" y1="546" x2="505.82" y2="546" fill="none" stroke="#000" stroke-linecap="round" stroke-miterlimit="10" stroke-width="0.5" stroke-dasharray="9.67 9.67"/>
      <line x1="510.65" y1="546" x2="516.65" y2="546" fill="none" stroke="#000" stroke-linecap="round" stroke-miterlimit="10" stroke-width="0.5"/>
    </g>
    <g>
      <line x1="383.85" y1="546" x2="389.85" y2="546" fill="none" stroke="#000" stroke-linecap="round" stroke-miterlimit="10" stroke-width="0.5"/>
      <line x1="399.51" y1="546" x2="433.35" y2="546" fill="none" stroke="#000" stroke-linecap="round" stroke-miterlimit="10" stroke-width="0.5" stroke-dasharray="9.67 9.67"/>
      <line x1="438.18" y1="546" x2="444.18" y2="546" fill="none" stroke="#000" stroke-linecap="round" stroke-miterlimit="10" stroke-width="0.5"/>
    </g>
  </g>
  <g>
    <g>
      <line x1="456.32" y1="351.67" x2="462.32" y2="351.67" fill="none" stroke="#000" stroke-linecap="round" stroke-miterlimit="10" stroke-width="0.5"/>
      <line x1="471.98" y1="351.67" x2="505.82" y2="351.67" fill="none" stroke="#000" stroke-linecap="round" stroke-miterlimit="10" stroke-width="0.5" stroke-dasharray="9.67 9.67"/>
      <line x1="510.65" y1="351.67" x2="516.65" y2="351.67" fill="none" stroke="#000" stroke-linecap="round" stroke-miterlimit="10" stroke-width="0.5"/>
    </g>
    <g>
      <line x1="383.85" y1="351.67" x2="389.85" y2="351.67" fill="none" stroke="#000" stroke-linecap="round" stroke-miterlimit="10" stroke-width="0.5"/>
      <line x1="399.51" y1="351.67" x2="433.35" y2="351.67" fill="none" stroke="#000" stroke-linecap="round" stroke-miterlimit="10" stroke-width="0.5" stroke-dasharray="9.67 9.67"/>
      <line x1="438.18" y1="351.67" x2="444.18" y2="351.67" fill="none" stroke="#000" stroke-linecap="round" stroke-miterlimit="10" stroke-width="0.5"/>
    </g>
  </g>
  <g>
    <g>
      <line x1="350.7" y1="443.93" x2="350.7" y2="437.93" fill="none" stroke="#000" stroke-linecap="round" stroke-miterlimit="10" stroke-width="0.5"/>
      <line x1="350.7" y1="428.27" x2="350.7" y2="394.43" fill="none" stroke="#000" stroke-linecap="round" stroke-miterlimit="10" stroke-width="0.5" stroke-dasharray="9.67 9.67"/>
      <line x1="350.7" y1="389.6" x2="350.7" y2="383.6" fill="none" stroke="#000" stroke-linecap="round" stroke-miterlimit="10" stroke-width="0.5"/>
    </g>
    <g>
      <line x1="350.7" y1="516.4" x2="350.7" y2="510.4" fill="none" stroke="#000" stroke-linecap="round" stroke-miterlimit="10" stroke-width="0.5"/>
      <line x1="350.7" y1="500.73" x2="350.7" y2="466.9" fill="none" stroke="#000" stroke-linecap="round" stroke-miterlimit="10" stroke-width="0.5" stroke-dasharray="9.67 9.67"/>
      <line x1="350.7" y1="462.07" x2="350.7" y2="456.07" fill="none" stroke="#000" stroke-linecap="round" stroke-miterlimit="10" stroke-width="0.5"/>
    </g>
  </g>
  <g>
    <g>
      <line x1="547.48" y1="443.93" x2="547.48" y2="437.93" fill="none" stroke="#000" stroke-linecap="round" stroke-miterlimit="10" stroke-width="0.5"/>
      <line x1="547.48" y1="428.27" x2="547.48" y2="394.43" fill="none" stroke="#000" stroke-linecap="round" stroke-miterlimit="10" stroke-width="0.5" stroke-dasharray="9.67 9.67"/>
      <line x1="547.48" y1="389.6" x2="547.48" y2="383.6" fill="none" stroke="#000" stroke-linecap="round" stroke-miterlimit="10" stroke-width="0.5"/>
    </g>
    <g>
      <line x1="547.48" y1="516.4" x2="547.48" y2="510.4" fill="none" stroke="#000" stroke-linecap="round" stroke-miterlimit="10" stroke-width="0.5"/>
      <line x1="547.48" y1="500.73" x2="547.48" y2="466.9" fill="none" stroke="#000" stroke-linecap="round" stroke-miterlimit="10" stroke-width="0.5" stroke-dasharray="9.67 9.67"/>
      <line x1="547.48" y1="462.07" x2="547.48" y2="456.07" fill="none" stroke="#000" stroke-linecap="round" stroke-miterlimit="10" stroke-width="0.5"/>
    </g>
  </g>
  <path d="M468,546A149.91,149.91,0,0,0,318,396" transform="translate(-0.02 0)" fill="none" stroke="#0071bf" stroke-miterlimit="10" stroke-width="0.75"/>
  <path d="M546,432A149.91,149.91,0,0,0,396,582" transform="translate(-0.02 0)" fill="none" stroke="#0071bf" stroke-miterlimit="10" stroke-width="0.75"/>
  <path d="M432,354A149.91,149.91,0,0,0,582,504" transform="translate(-0.02 0)" fill="none" stroke="#0071bf" stroke-miterlimit="10" stroke-width="0.75"/>
  <path d="M354,468A149.91,149.91,0,0,0,504,318" transform="translate(-0.02 0)" fill="none" stroke="#0071bf" stroke-miterlimit="10" stroke-width="0.75"/>
</svg>
