<?xml version="1.0" encoding="utf-8"?>
<!-- Generator: Adobe Illustrator 21.0.0, SVG Export Plug-In . SVG Version: 6.00 Build 0)  -->
<svg version="1.1" id="Layer_1" xmlns="http://www.w3.org/2000/svg" xmlns:xlink="http://www.w3.org/1999/xlink" x="0px" y="0px"
	 viewBox="0 0 800 600" style="enable-background:new 0 0 800 600;" xml:space="preserve">
<style type="text/css">
	.st0{fill:#34495E;}
	.st1{fill:none;stroke:#E67E22;stroke-width:3.325;stroke-linecap:square;stroke-miterlimit:10;}
	.st2{fill:#FFFFFF;}
	.st3{fill:none;stroke:#FFFFFF;stroke-linecap:square;stroke-miterlimit:10;}
</style>
<g>
	<g>
		<g>
			<polygon class="st0" points="439.9,362.3 468.1,334.6 474.7,341.1 446.5,368.8 			"/>
			<polygon class="st0" points="331.3,334.6 359.5,362.3 352.9,368.8 324.7,341 			"/>
			<polygon class="st0" points="446.5,225.8 474.6,253.6 468,260.1 439.9,232.3 			"/>
			<polygon class="st0" points="324.8,253.6 352.9,225.8 359.5,232.3 331.3,260.1 			"/>
			<g>
				<path class="st0" d="M471.1,342.7c-12.7,0-23,10.2-23,22.7v225.2h-95.6V365.3c0-12.5-10.3-22.7-23-22.7h1.6H101v-94.2h228.4l0,0
					c12.3,0,22.3-9.3,23-21.1V226V0.5H448V226c0,12.4,10.3,22.4,23,22.4h-1.7h230.1v94.2H468.7"/>
			</g>
		</g>
		<g>
			<g>
				<g>
					<line class="st1" x1="310.2" y1="299.7" x2="106.5" y2="299.7"/>
					<g>
						<rect x="111.7" y="269.2" class="st2" width="6.1" height="1.3"/>
						<rect x="123.2" y="269.2" class="st2" width="6.1" height="1.3"/>
						<rect x="134.7" y="269.2" class="st2" width="6.1" height="1.3"/>
						<rect x="146.2" y="269.2" class="st2" width="6.1" height="1.3"/>
						<rect x="157.7" y="269.2" class="st2" width="6.1" height="1.3"/>
						<rect x="169.2" y="269.2" class="st2" width="6.1" height="1.3"/>
						<rect x="180.7" y="269.2" class="st2" width="6.1" height="1.3"/>
						<rect x="192.2" y="269.2" class="st2" width="6.1" height="1.3"/>
						<rect x="203.7" y="269.2" class="st2" width="6.1" height="1.3"/>
						<rect x="215.2" y="269.2" class="st2" width="6.1" height="1.3"/>
						<rect x="226.7" y="269.2" class="st2" width="6.1" height="1.3"/>
						<rect x="238.2" y="269.2" class="st2" width="6.1" height="1.3"/>
						<rect x="249.7" y="269.2" class="st2" width="6.1" height="1.3"/>
						<rect x="261.2" y="269.2" class="st2" width="6.1" height="1.3"/>
						<rect x="272.7" y="269.2" class="st2" width="6.1" height="1.3"/>
						<rect x="284.2" y="269.2" class="st2" width="6.1" height="1.3"/>
						<rect x="295.7" y="269.2" class="st2" width="6.1" height="1.3"/>
						<rect x="307.2" y="269.2" class="st2" width="6.1" height="1.3"/>
					</g>
					<g>
						<rect x="111.7" y="281.2" class="st2" width="6.1" height="1.3"/>
						<rect x="123.2" y="281.2" class="st2" width="6.1" height="1.3"/>
						<rect x="134.7" y="281.2" class="st2" width="6.1" height="1.3"/>
						<rect x="146.2" y="281.2" class="st2" width="6.1" height="1.3"/>
						<rect x="157.7" y="281.2" class="st2" width="6.1" height="1.3"/>
						<rect x="169.2" y="281.2" class="st2" width="6.1" height="1.3"/>
						<rect x="180.7" y="281.2" class="st2" width="6.1" height="1.3"/>
						<rect x="192.2" y="281.2" class="st2" width="6.1" height="1.3"/>
						<rect x="203.7" y="281.2" class="st2" width="6.1" height="1.3"/>
						<rect x="215.2" y="281.2" class="st2" width="6.1" height="1.3"/>
						<rect x="226.7" y="281.2" class="st2" width="6.1" height="1.3"/>
						<rect x="238.2" y="281.2" class="st2" width="6.1" height="1.3"/>
						<rect x="249.7" y="281.2" class="st2" width="6.1" height="1.3"/>
						<rect x="261.2" y="281.2" class="st2" width="6.1" height="1.3"/>
						<rect x="272.7" y="281.2" class="st2" width="6.1" height="1.3"/>
						<rect x="284.2" y="281.2" class="st2" width="6.1" height="1.3"/>
						<rect x="295.7" y="281.2" class="st2" width="6.1" height="1.3"/>
						<rect x="307.2" y="281.2" class="st2" width="6.1" height="1.3"/>
					</g>
					<g>
						<rect x="111.7" y="317.1" class="st2" width="6.1" height="1.3"/>
						<rect x="123.2" y="317.1" class="st2" width="6.1" height="1.3"/>
						<rect x="134.7" y="317.1" class="st2" width="6.1" height="1.3"/>
						<rect x="146.2" y="317.1" class="st2" width="6.1" height="1.3"/>
						<rect x="157.7" y="317.1" class="st2" width="6.1" height="1.3"/>
						<rect x="169.2" y="317.1" class="st2" width="6.1" height="1.3"/>
						<rect x="180.7" y="317.1" class="st2" width="6.1" height="1.3"/>
						<rect x="192.2" y="317.1" class="st2" width="6.1" height="1.3"/>
						<rect x="203.7" y="317.1" class="st2" width="6.1" height="1.3"/>
						<rect x="215.2" y="317.1" class="st2" width="6.1" height="1.3"/>
						<rect x="226.7" y="317.1" class="st2" width="6.1" height="1.3"/>
						<rect x="238.2" y="317.1" class="st2" width="6.1" height="1.3"/>
						<rect x="249.7" y="317.1" class="st2" width="6.1" height="1.3"/>
						<rect x="261.2" y="317.1" class="st2" width="6.1" height="1.3"/>
						<rect x="272.7" y="317.1" class="st2" width="6.1" height="1.3"/>
						<rect x="284.2" y="317.1" class="st2" width="6.1" height="1.3"/>
						<rect x="295.7" y="317.1" class="st2" width="6.1" height="1.3"/>
						<rect x="307.2" y="317.1" class="st2" width="6.1" height="1.3"/>
					</g>
					<g>
						<rect x="111.7" y="329" class="st2" width="6.1" height="1.3"/>
						<rect x="123.2" y="329" class="st2" width="6.1" height="1.3"/>
						<rect x="134.7" y="329" class="st2" width="6.1" height="1.3"/>
						<rect x="146.2" y="329" class="st2" width="6.1" height="1.3"/>
						<rect x="157.7" y="329" class="st2" width="6.1" height="1.3"/>
						<rect x="169.2" y="329" class="st2" width="6.1" height="1.3"/>
						<rect x="180.7" y="329" class="st2" width="6.1" height="1.3"/>
						<rect x="192.2" y="329" class="st2" width="6.1" height="1.3"/>
						<rect x="203.7" y="329" class="st2" width="6.1" height="1.3"/>
						<rect x="215.2" y="329" class="st2" width="6.1" height="1.3"/>
						<rect x="226.7" y="329" class="st2" width="6.1" height="1.3"/>
						<rect x="238.2" y="329" class="st2" width="6.1" height="1.3"/>
						<rect x="249.7" y="329" class="st2" width="6.1" height="1.3"/>
						<rect x="261.2" y="329" class="st2" width="6.1" height="1.3"/>
						<rect x="272.7" y="329" class="st2" width="6.1" height="1.3"/>
						<rect x="284.2" y="329" class="st2" width="6.1" height="1.3"/>
						<rect x="295.7" y="329" class="st2" width="6.1" height="1.3"/>
						<rect x="307.2" y="329" class="st2" width="6.1" height="1.3"/>
					</g>
				</g>
				<g>
					<line class="st1" x1="687.7" y1="299.7" x2="489.2" y2="299.7"/>
					<g>
						<rect x="486.1" y="269.2" class="st2" width="6.1" height="1.3"/>
						<rect x="497.6" y="269.2" class="st2" width="6.1" height="1.3"/>
						<rect x="509.1" y="269.2" class="st2" width="6.1" height="1.3"/>
						<rect x="520.6" y="269.2" class="st2" width="6.1" height="1.3"/>
						<rect x="532.1" y="269.2" class="st2" width="6.1" height="1.3"/>
						<rect x="543.6" y="269.2" class="st2" width="6.1" height="1.3"/>
						<rect x="555.1" y="269.2" class="st2" width="6.1" height="1.3"/>
						<rect x="566.6" y="269.2" class="st2" width="6.1" height="1.3"/>
						<rect x="578.1" y="269.2" class="st2" width="6.1" height="1.3"/>
						<rect x="589.6" y="269.2" class="st2" width="6.1" height="1.3"/>
						<rect x="601.1" y="269.2" class="st2" width="6.1" height="1.3"/>
						<rect x="612.6" y="269.2" class="st2" width="6.1" height="1.3"/>
						<rect x="624.1" y="269.2" class="st2" width="6.1" height="1.3"/>
						<rect x="635.6" y="269.2" class="st2" width="6.1" height="1.3"/>
						<rect x="647.1" y="269.2" class="st2" width="6.1" height="1.3"/>
						<rect x="658.6" y="269.2" class="st2" width="6.1" height="1.3"/>
						<rect x="670.1" y="269.2" class="st2" width="6.1" height="1.3"/>
						<rect x="681.6" y="269.2" class="st2" width="6.1" height="1.3"/>
					</g>
					<g>
						<rect x="486.1" y="281.2" class="st2" width="6.1" height="1.3"/>
						<rect x="497.6" y="281.2" class="st2" width="6.1" height="1.3"/>
						<rect x="509.1" y="281.2" class="st2" width="6.1" height="1.3"/>
						<rect x="520.6" y="281.2" class="st2" width="6.1" height="1.3"/>
						<rect x="532.1" y="281.2" class="st2" width="6.1" height="1.3"/>
						<rect x="543.6" y="281.2" class="st2" width="6.1" height="1.3"/>
						<rect x="555.1" y="281.2" class="st2" width="6.1" height="1.3"/>
						<rect x="566.6" y="281.2" class="st2" width="6.1" height="1.3"/>
						<rect x="578.1" y="281.2" class="st2" width="6.1" height="1.3"/>
						<rect x="589.6" y="281.2" class="st2" width="6.1" height="1.3"/>
						<rect x="601.1" y="281.2" class="st2" width="6.1" height="1.3"/>
						<rect x="612.6" y="281.2" class="st2" width="6.1" height="1.3"/>
						<rect x="624.1" y="281.2" class="st2" width="6.1" height="1.3"/>
						<rect x="635.6" y="281.2" class="st2" width="6.1" height="1.3"/>
						<rect x="647.1" y="281.2" class="st2" width="6.1" height="1.3"/>
						<rect x="658.6" y="281.2" class="st2" width="6.1" height="1.3"/>
						<rect x="670.1" y="281.2" class="st2" width="6.1" height="1.3"/>
						<rect x="681.6" y="281.2" class="st2" width="6.1" height="1.3"/>
					</g>
					<g>
						<rect x="486.1" y="317.1" class="st2" width="6.1" height="1.3"/>
						<rect x="497.6" y="317.1" class="st2" width="6.1" height="1.3"/>
						<rect x="509.1" y="317.1" class="st2" width="6.1" height="1.3"/>
						<rect x="520.6" y="317.1" class="st2" width="6.1" height="1.3"/>
						<rect x="532.1" y="317.1" class="st2" width="6.1" height="1.3"/>
						<rect x="543.6" y="317.1" class="st2" width="6.1" height="1.3"/>
						<rect x="555.1" y="317.1" class="st2" width="6.1" height="1.3"/>
						<rect x="566.6" y="317.1" class="st2" width="6.1" height="1.3"/>
						<rect x="578.1" y="317.1" class="st2" width="6.1" height="1.3"/>
						<rect x="589.6" y="317.1" class="st2" width="6.1" height="1.3"/>
						<rect x="601.1" y="317.1" class="st2" width="6.1" height="1.3"/>
						<rect x="612.6" y="317.1" class="st2" width="6.1" height="1.3"/>
						<rect x="624.1" y="317.1" class="st2" width="6.1" height="1.3"/>
						<rect x="635.6" y="317.1" class="st2" width="6.1" height="1.3"/>
						<rect x="647.1" y="317.1" class="st2" width="6.1" height="1.3"/>
						<rect x="658.6" y="317.1" class="st2" width="6.1" height="1.3"/>
						<rect x="670.1" y="317.1" class="st2" width="6.1" height="1.3"/>
						<rect x="681.6" y="317.1" class="st2" width="6.1" height="1.3"/>
					</g>
					<g>
						<rect x="486.1" y="329" class="st2" width="6.1" height="1.3"/>
						<rect x="497.6" y="329" class="st2" width="6.1" height="1.3"/>
						<rect x="509.1" y="329" class="st2" width="6.1" height="1.3"/>
						<rect x="520.6" y="329" class="st2" width="6.1" height="1.3"/>
						<rect x="532.1" y="329" class="st2" width="6.1" height="1.3"/>
						<rect x="543.6" y="329" class="st2" width="6.1" height="1.3"/>
						<rect x="555.1" y="329" class="st2" width="6.1" height="1.3"/>
						<rect x="566.6" y="329" class="st2" width="6.1" height="1.3"/>
						<rect x="578.1" y="329" class="st2" width="6.1" height="1.3"/>
						<rect x="589.6" y="329" class="st2" width="6.1" height="1.3"/>
						<rect x="601.1" y="329" class="st2" width="6.1" height="1.3"/>
						<rect x="612.6" y="329" class="st2" width="6.1" height="1.3"/>
						<rect x="624.1" y="329" class="st2" width="6.1" height="1.3"/>
						<rect x="635.6" y="329" class="st2" width="6.1" height="1.3"/>
						<rect x="647.1" y="329" class="st2" width="6.1" height="1.3"/>
						<rect x="658.6" y="329" class="st2" width="6.1" height="1.3"/>
						<rect x="670.1" y="329" class="st2" width="6.1" height="1.3"/>
						<rect x="681.6" y="329" class="st2" width="6.1" height="1.3"/>
					</g>
				</g>
				<g>
					<line class="st1" x1="401" y1="386.8" x2="401" y2="585.3"/>
					<g>
						<rect x="370.4" y="579.2" class="st2" width="1.3" height="6.1"/>
						<rect x="370.4" y="567.7" class="st2" width="1.3" height="6.1"/>
						<rect x="370.4" y="556.2" class="st2" width="1.3" height="6.1"/>
						<rect x="370.4" y="544.7" class="st2" width="1.3" height="6.1"/>
						<rect x="370.4" y="533.2" class="st2" width="1.3" height="6.1"/>
						<rect x="370.4" y="521.7" class="st2" width="1.3" height="6.1"/>
						<rect x="370.4" y="510.2" class="st2" width="1.3" height="6.1"/>
						<rect x="370.4" y="498.7" class="st2" width="1.3" height="6.1"/>
						<rect x="370.4" y="487.2" class="st2" width="1.3" height="6.1"/>
						<rect x="370.4" y="475.7" class="st2" width="1.3" height="6.1"/>
						<rect x="370.4" y="464.2" class="st2" width="1.3" height="6.1"/>
						<rect x="370.4" y="452.7" class="st2" width="1.3" height="6.1"/>
						<rect x="370.4" y="441.2" class="st2" width="1.3" height="6.1"/>
						<rect x="370.4" y="429.7" class="st2" width="1.3" height="6.1"/>
						<rect x="370.4" y="418.2" class="st2" width="1.3" height="6.1"/>
						<rect x="370.4" y="406.7" class="st2" width="1.3" height="6.1"/>
						<rect x="370.4" y="395.2" class="st2" width="1.3" height="6.1"/>
						<rect x="370.4" y="383.7" class="st2" width="1.3" height="6.1"/>
					</g>
					<g>
						<rect x="382.4" y="579.3" class="st2" width="1.3" height="6.1"/>
						<rect x="382.4" y="567.8" class="st2" width="1.3" height="6.1"/>
						<rect x="382.4" y="556.3" class="st2" width="1.3" height="6.1"/>
						<rect x="382.4" y="544.8" class="st2" width="1.3" height="6.1"/>
						<rect x="382.4" y="533.3" class="st2" width="1.3" height="6.1"/>
						<rect x="382.4" y="521.8" class="st2" width="1.3" height="6.1"/>
						<rect x="382.4" y="510.3" class="st2" width="1.3" height="6.1"/>
						<rect x="382.4" y="498.8" class="st2" width="1.3" height="6.1"/>
						<rect x="382.4" y="487.3" class="st2" width="1.3" height="6.1"/>
						<rect x="382.4" y="475.8" class="st2" width="1.3" height="6.1"/>
						<rect x="382.4" y="464.3" class="st2" width="1.3" height="6.1"/>
						<rect x="382.4" y="452.8" class="st2" width="1.3" height="6.1"/>
						<rect x="382.4" y="441.3" class="st2" width="1.3" height="6.1"/>
						<rect x="382.4" y="429.8" class="st2" width="1.3" height="6.1"/>
						<rect x="382.4" y="418.3" class="st2" width="1.3" height="6.1"/>
						<rect x="382.4" y="406.8" class="st2" width="1.3" height="6.1"/>
						<rect x="382.4" y="395.3" class="st2" width="1.3" height="6.1"/>
						<rect x="382.4" y="383.8" class="st2" width="1.3" height="6.1"/>
					</g>
					<g>
						<rect x="418.2" y="579.2" class="st2" width="1.3" height="6.1"/>
						<rect x="418.2" y="567.7" class="st2" width="1.3" height="6.1"/>
						<rect x="418.2" y="556.2" class="st2" width="1.3" height="6.1"/>
						<rect x="418.2" y="544.7" class="st2" width="1.3" height="6.1"/>
						<rect x="418.2" y="533.2" class="st2" width="1.3" height="6.1"/>
						<rect x="418.2" y="521.7" class="st2" width="1.3" height="6.1"/>
						<rect x="418.2" y="510.2" class="st2" width="1.3" height="6.1"/>
						<rect x="418.2" y="498.7" class="st2" width="1.3" height="6.1"/>
						<rect x="418.2" y="487.2" class="st2" width="1.3" height="6.1"/>
						<rect x="418.2" y="475.7" class="st2" width="1.3" height="6.1"/>
						<rect x="418.2" y="464.2" class="st2" width="1.3" height="6.1"/>
						<rect x="418.2" y="452.7" class="st2" width="1.3" height="6.1"/>
						<rect x="418.2" y="441.2" class="st2" width="1.3" height="6.1"/>
						<rect x="418.2" y="429.7" class="st2" width="1.3" height="6.1"/>
						<rect x="418.2" y="418.2" class="st2" width="1.3" height="6.1"/>
						<rect x="418.2" y="406.7" class="st2" width="1.3" height="6.1"/>
						<rect x="418.2" y="395.2" class="st2" width="1.3" height="6.1"/>
						<rect x="418.2" y="383.7" class="st2" width="1.3" height="6.1"/>
					</g>
					<g>
						<rect x="430.2" y="579.2" class="st2" width="1.3" height="6.1"/>
						<rect x="430.2" y="567.7" class="st2" width="1.3" height="6.1"/>
						<rect x="430.2" y="556.2" class="st2" width="1.3" height="6.1"/>
						<rect x="430.2" y="544.7" class="st2" width="1.3" height="6.1"/>
						<rect x="430.2" y="533.2" class="st2" width="1.3" height="6.1"/>
						<rect x="430.2" y="521.7" class="st2" width="1.3" height="6.1"/>
						<rect x="430.2" y="510.2" class="st2" width="1.3" height="6.1"/>
						<rect x="430.2" y="498.7" class="st2" width="1.3" height="6.1"/>
						<rect x="430.2" y="487.2" class="st2" width="1.3" height="6.1"/>
						<rect x="430.2" y="475.7" class="st2" width="1.3" height="6.1"/>
						<rect x="430.2" y="464.2" class="st2" width="1.3" height="6.1"/>
						<rect x="430.2" y="452.7" class="st2" width="1.3" height="6.1"/>
						<rect x="430.2" y="441.2" class="st2" width="1.3" height="6.1"/>
						<rect x="430.2" y="429.7" class="st2" width="1.3" height="6.1"/>
						<rect x="430.2" y="418.2" class="st2" width="1.3" height="6.1"/>
						<rect x="430.2" y="406.7" class="st2" width="1.3" height="6.1"/>
						<rect x="430.2" y="395.2" class="st2" width="1.3" height="6.1"/>
						<rect x="430.2" y="383.7" class="st2" width="1.3" height="6.1"/>
					</g>
				</g>
				<g>
					<line class="st1" x1="401" y1="9.4" x2="401" y2="210.9"/>
					<g>
						<rect x="370.5" y="204.8" class="st2" width="1.3" height="6.1"/>
						<rect x="370.5" y="193.3" class="st2" width="1.3" height="6.1"/>
						<rect x="370.5" y="181.8" class="st2" width="1.3" height="6.1"/>
						<rect x="370.5" y="170.3" class="st2" width="1.3" height="6.1"/>
						<rect x="370.5" y="158.8" class="st2" width="1.3" height="6.1"/>
						<rect x="370.5" y="147.3" class="st2" width="1.3" height="6.1"/>
						<rect x="370.5" y="135.8" class="st2" width="1.3" height="6.1"/>
						<rect x="370.5" y="124.3" class="st2" width="1.3" height="6.1"/>
						<rect x="370.5" y="112.8" class="st2" width="1.3" height="6.1"/>
						<rect x="370.5" y="101.3" class="st2" width="1.3" height="6.1"/>
						<rect x="370.5" y="89.8" class="st2" width="1.3" height="6.1"/>
						<rect x="370.5" y="78.3" class="st2" width="1.3" height="6.1"/>
						<rect x="370.5" y="66.8" class="st2" width="1.3" height="6.1"/>
						<rect x="370.5" y="55.3" class="st2" width="1.3" height="6.1"/>
						<rect x="370.5" y="43.8" class="st2" width="1.3" height="6.1"/>
						<rect x="370.5" y="32.3" class="st2" width="1.3" height="6.1"/>
						<rect x="370.5" y="20.8" class="st2" width="1.3" height="6.1"/>
						<rect x="370.5" y="9.3" class="st2" width="1.3" height="6.1"/>
					</g>
					<g>
						<rect x="382.4" y="204.9" class="st2" width="1.3" height="6.1"/>
						<rect x="382.4" y="193.4" class="st2" width="1.3" height="6.1"/>
						<rect x="382.4" y="181.9" class="st2" width="1.3" height="6.1"/>
						<rect x="382.4" y="170.4" class="st2" width="1.3" height="6.1"/>
						<rect x="382.4" y="158.9" class="st2" width="1.3" height="6.1"/>
						<rect x="382.4" y="147.4" class="st2" width="1.3" height="6.1"/>
						<rect x="382.4" y="135.9" class="st2" width="1.3" height="6.1"/>
						<rect x="382.4" y="124.4" class="st2" width="1.3" height="6.1"/>
						<rect x="382.4" y="112.9" class="st2" width="1.3" height="6.1"/>
						<rect x="382.4" y="101.4" class="st2" width="1.3" height="6.1"/>
						<rect x="382.4" y="89.9" class="st2" width="1.3" height="6.1"/>
						<rect x="382.4" y="78.4" class="st2" width="1.3" height="6.1"/>
						<rect x="382.4" y="66.9" class="st2" width="1.3" height="6.1"/>
						<rect x="382.4" y="55.4" class="st2" width="1.3" height="6.1"/>
						<rect x="382.4" y="43.9" class="st2" width="1.3" height="6.1"/>
						<rect x="382.4" y="32.4" class="st2" width="1.3" height="6.1"/>
						<rect x="382.4" y="20.9" class="st2" width="1.3" height="6.1"/>
						<rect x="382.4" y="9.4" class="st2" width="1.3" height="6.1"/>
					</g>
					<g>
						<rect x="418.3" y="204.9" class="st2" width="1.3" height="6.1"/>
						<rect x="418.3" y="193.4" class="st2" width="1.3" height="6.1"/>
						<rect x="418.3" y="181.9" class="st2" width="1.3" height="6.1"/>
						<rect x="418.3" y="170.4" class="st2" width="1.3" height="6.1"/>
						<rect x="418.3" y="158.9" class="st2" width="1.3" height="6.1"/>
						<rect x="418.3" y="147.4" class="st2" width="1.3" height="6.1"/>
						<rect x="418.3" y="135.9" class="st2" width="1.3" height="6.1"/>
						<rect x="418.3" y="124.4" class="st2" width="1.3" height="6.1"/>
						<rect x="418.3" y="112.9" class="st2" width="1.3" height="6.1"/>
						<rect x="418.3" y="101.4" class="st2" width="1.3" height="6.1"/>
						<rect x="418.3" y="89.9" class="st2" width="1.3" height="6.1"/>
						<rect x="418.3" y="78.4" class="st2" width="1.3" height="6.1"/>
						<rect x="418.3" y="66.9" class="st2" width="1.3" height="6.1"/>
						<rect x="418.3" y="55.4" class="st2" width="1.3" height="6.1"/>
						<rect x="418.3" y="43.9" class="st2" width="1.3" height="6.1"/>
						<rect x="418.3" y="32.4" class="st2" width="1.3" height="6.1"/>
						<rect x="418.3" y="20.9" class="st2" width="1.3" height="6.1"/>
						<rect x="418.3" y="9.4" class="st2" width="1.3" height="6.1"/>
					</g>
					<g>
						<rect x="430.3" y="204.8" class="st2" width="1.3" height="6.1"/>
						<rect x="430.3" y="193.3" class="st2" width="1.3" height="6.1"/>
						<rect x="430.3" y="181.8" class="st2" width="1.3" height="6.1"/>
						<rect x="430.3" y="170.3" class="st2" width="1.3" height="6.1"/>
						<rect x="430.3" y="158.8" class="st2" width="1.3" height="6.1"/>
						<rect x="430.3" y="147.3" class="st2" width="1.3" height="6.1"/>
						<rect x="430.3" y="135.8" class="st2" width="1.3" height="6.1"/>
						<rect x="430.3" y="124.3" class="st2" width="1.3" height="6.1"/>
						<rect x="430.3" y="112.8" class="st2" width="1.3" height="6.1"/>
						<rect x="430.3" y="101.3" class="st2" width="1.3" height="6.1"/>
						<rect x="430.3" y="89.8" class="st2" width="1.3" height="6.1"/>
						<rect x="430.3" y="78.3" class="st2" width="1.3" height="6.1"/>
						<rect x="430.3" y="66.8" class="st2" width="1.3" height="6.1"/>
						<rect x="430.3" y="55.3" class="st2" width="1.3" height="6.1"/>
						<rect x="430.3" y="43.8" class="st2" width="1.3" height="6.1"/>
						<rect x="430.3" y="32.3" class="st2" width="1.3" height="6.1"/>
						<rect x="430.3" y="20.8" class="st2" width="1.3" height="6.1"/>
						<rect x="430.3" y="9.3" class="st2" width="1.3" height="6.1"/>
					</g>
				</g>
			</g>
			<g>
				<line class="st3" x1="404.5" y1="380.7" x2="444.6" y2="380.7"/>
				<line class="st3" x1="482.3" y1="295.9" x2="482.3" y2="255.8"/>
				<line class="st3" x1="317" y1="343.7" x2="317" y2="303.6"/>
				<line class="st3" x1="396.4" y1="215.3" x2="356.3" y2="215.3"/>
			</g>
		</g>
	</g>
	<g>
		<rect x="365.2" y="351" class="st2" width="3.3" height="21.3"/>
		<rect x="374.9" y="351" class="st2" width="3.3" height="21.3"/>
		<rect x="384.7" y="351" class="st2" width="3.3" height="21.3"/>
		<rect x="394.4" y="351" class="st2" width="3.3" height="21.3"/>
		<rect x="404.2" y="351" class="st2" width="3.3" height="21.3"/>
		<rect x="414" y="351" class="st2" width="3.3" height="21.3"/>
		<rect x="423.7" y="351" class="st2" width="3.3" height="21.3"/>
		<rect x="433.5" y="351" class="st2" width="3.3" height="21.3"/>
	</g>
	<g>
		<rect x="365.2" y="225.1" class="st2" width="3.3" height="21.3"/>
		<rect x="374.9" y="225.1" class="st2" width="3.3" height="21.3"/>
		<rect x="384.7" y="225.1" class="st2" width="3.3" height="21.3"/>
		<rect x="394.4" y="225.1" class="st2" width="3.3" height="21.3"/>
		<rect x="404.2" y="225.1" class="st2" width="3.3" height="21.3"/>
		<rect x="414" y="225.1" class="st2" width="3.3" height="21.3"/>
		<rect x="423.7" y="225.1" class="st2" width="3.3" height="21.3"/>
		<rect x="433.5" y="225.1" class="st2" width="3.3" height="21.3"/>
	</g>
	<g>
		<rect x="320.8" y="262.9" class="st2" width="21.3" height="3.3"/>
		<rect x="320.8" y="272.7" class="st2" width="21.3" height="3.3"/>
		<rect x="320.8" y="282.4" class="st2" width="21.3" height="3.3"/>
		<rect x="320.8" y="292.2" class="st2" width="21.3" height="3.3"/>
		<rect x="320.8" y="301.9" class="st2" width="21.3" height="3.3"/>
		<rect x="320.8" y="311.7" class="st2" width="21.3" height="3.3"/>
		<rect x="320.8" y="321.5" class="st2" width="21.3" height="3.3"/>
		<rect x="320.8" y="331.2" class="st2" width="21.3" height="3.3"/>
	</g>
	<g>
		<rect x="457.3" y="262.9" class="st2" width="21.3" height="3.3"/>
		<rect x="457.4" y="272.6" class="st2" width="21.3" height="3.3"/>
		<rect x="457.3" y="282.4" class="st2" width="21.3" height="3.3"/>
		<rect x="457.3" y="292.2" class="st2" width="21.3" height="3.3"/>
		<rect x="457.3" y="301.9" class="st2" width="21.3" height="3.3"/>
		<rect x="457.3" y="311.7" class="st2" width="21.3" height="3.3"/>
		<rect x="457.4" y="321.4" class="st2" width="21.3" height="3.3"/>
		<rect x="457.3" y="331.2" class="st2" width="21.3" height="3.3"/>
	</g>
</g>
</svg>
