<?xml version="1.0" encoding="utf-8"?>
<!-- Generator: Adobe Illustrator 21.0.0, SVG Export Plug-In . SVG Version: 6.00 Build 0)  -->
<svg version="1.1" id="Layer_1" xmlns="http://www.w3.org/2000/svg" xmlns:xlink="http://www.w3.org/1999/xlink" x="0px" y="0px"
	 viewBox="0 0 800 600" style="enable-background:new 0 0 800 600;" xml:space="preserve">
<style type="text/css">
	.st0{fill:#95A5A6;}
	.st1{fill:#7F8C8D;}
</style>
<g>
	<path class="st0" d="M760.1,599.3H39.8c-12.2,0-22.1-9.9-22.1-22.1v-544c0-12.2,9.9-22.1,22.1-22.1H760c12.2,0,22.1,9.9,22.1,22.1
		v544.1C782.1,589.4,772.3,599.3,760.1,599.3z"/>
	<path class="st1" d="M760.4,588.3H40.1c-12.2,0-22.1-9.9-22.1-22.1v-544C18,10,27.8,0.1,40.1,0.1h720.2c12.2,0,22.1,9.9,22.1,22.1
		v544.1C782.3,578.4,772.5,588.3,760.4,588.3z"/>
</g>
<image style="display:none;overflow:visible;" width="1248" height="1247" xlink:href="road-image.png"  transform="matrix(0.48 0 0 0.48 100.63 0.72)">
</image>
</svg>
