<?xml version="1.0" encoding="utf-8"?>
<!-- Generator: Adobe Illustrator 19.2.0, SVG Export Plug-In . SVG Version: 6.00 Build 0)  -->
<svg version="1.2" baseProfile="tiny" id="Layer_1" xmlns="http://www.w3.org/2000/svg" xmlns:xlink="http://www.w3.org/1999/xlink"
	 x="0px" y="0px" width="800px" height="600px" viewBox="0 0 800 600" xml:space="preserve">
<g>
	<path fill="#2A1C00" d="M721.1,566.8H78.9c-10.9,0-19.7-8.8-19.7-19.7V62.1c0-10.9,8.8-19.7,19.7-19.7h642.1
		c10.9,0,19.7,8.8,19.7,19.7v485.1C740.7,558,731.9,566.8,721.1,566.8z"/>
	<path fill="#559400" d="M721.3,557H79.1c-10.9,0-19.7-8.8-19.7-19.7V52.3c0-10.9,8.8-19.7,19.7-19.7h642.1
		c10.9,0,19.7,8.8,19.7,19.7v485.1C740.9,548.2,732.1,557,721.3,557z"/>
</g>
</svg>
